{"title":"Darkness.2002.PL.DVDRip.XviD-RLF","uid":6911274,"size":741741172,"categoryP":"video","categoryS":"movies","magnet":"?xt=urn:btih:cc896d683093ac763a434fa956b7b5d9cb19496f&amp;dn=Darkness.2002.PL.DVDRip.XviD-RLF&amp;tr=udp%3A%2F%2Ftracker.openbittorrent.com%3A80&amp;tr=udp%3A%2F%2Fopen.demonii.com%3A1337&amp;tr=udp%3A%2F%2Ftracker.coppersurfer.tk%3A6969&amp;tr=udp%3A%2F%2Fexodus.desync.com%3A6969","seeders":0,"leechers":1,"uploader":"rlf-rls","files":-1,"time":1324826311,"description":"Darkness.2002.PL.DVDRip.XviD-RLF\n--------------------------------\n\nGENERAL\n\nComplete name: rlf-darkness-pl.avi\nFormat: AVI\nFormat/Info: Audio Video Interleave\nFile size: 700 MiB\nDuration: 1h 38mn\nOverall bit rate: 997 Kbps\nLanguage: Polish\nSubs: None  \nEncoder: Ralf\n\nVideo:\n\nFormat: MPEG-4 Visual\nFormat profile: Advanced Simple@L5\nFormat settings, BVOP: 2\nFormat settings, QPel: No\nFormat settings, GMC: No warppoints\nFormat settings, Matrix: H.263\nMuxing mode: Packed bitstream\nCodec ID: XVID\nDuration: 1h 38mn\nBit rate: 860 Kbps\nWidth: 688 pixels\nHeight: 368 pixels\nDisplay aspect ratio: 1.870\nFrame rate: 25.000 fps\nColor space: YUV\nChroma subsampling: 4:2:0\nBit depth: 8 bits\nScan type: Progressive\nBits/(Pixel*Frame): 0.136\nStream size: 603 MiB (86%)\n\nAudio:\n\nFormat: MPEG Audio\nFormat profile: Layer 3\nCodec ID/Hint: MP3\nDuration: 1h 38mn\nBit rate mode: Constant\nBit rate: 128 Kbps\nChannel(s): 2 channels\nSampling rate: 48.0 KHz\nStream size: 89.8 MiB (13%)\nAlignment: Split accross interleaves\n\nMOVIE INFO\n\nAmerykanska rodzina przeprowadza sie do opuszczonej od 40 lat posiadlosci\nw Hiszpanii. Wkrotce jej czlonkowie zaczynaja zachowywac sie bardzo dziwnie.\n                                &lt;a href=&quot;\nhttp://www.imdb.com/title/tt0273517/&quot; rel=&quot;nofollow&quot; target=&quot;_NEW&quot;&gt;\nhttp://www.imdb.com/title/tt0273517/&lt;/a&gt; &lt;a href=&quot;\nhttp://www.filmweb.pl/Ciemnosc&quot; rel=&quot;nofollow&quot; target=&quot;_NEW&quot;&gt;\nhttp://www.filmweb.pl/Ciemnosc&lt;/a&gt;\n\nSCREENS\n &lt;a href=&quot;\nhttp://www.postimg.com/56000/photo-55499.jpg&quot; rel=&quot;nofollow&quot; target=&quot;_NEW&quot;&gt;\nhttp://www.postimg.com/56000/photo-55499.jpg&lt;/a&gt; &lt;a href=&quot;\nhttp://www.postimg.com/56000/photo-55500.jpg&quot; rel=&quot;nofollow&quot; target=&quot;_NEW&quot;&gt;\nhttp://www.postimg.com/56000/photo-55500.jpg&lt;/a&gt; &lt;a href=&quot;\nhttp://www.postimg.com/56000/photo-55501.jpg&quot; rel=&quot;nofollow&quot; target=&quot;_NEW&quot;&gt;\nhttp://www.postimg.com/56000/photo-55501.jpg&lt;/a&gt; &lt;a href=&quot;\nhttp://www.postimg.com/56000/photo-55502.jpg&quot; rel=&quot;nofollow&quot; target=&quot;_NEW&quot;&gt;\nhttp://www.postimg.com/56000/photo-55502.jpg&lt;/a&gt;\n","torrent":{"xt":"urn:btih:cc896d683093ac763a434fa956b7b5d9cb19496f","amp;dn":"Darkness.2002.PL.DVDRip.XviD-RLF","amp;tr":["udp%3A%2F%2Ftracker.openbittorrent.com%3A80","udp%3A%2F%2Fopen.demonii.com%3A1337","udp%3A%2F%2Ftracker.coppersurfer.tk%3A6969","udp%3A%2F%2Fexodus.desync.com%3A6969"],"infoHash":"cc896d683093ac763a434fa956b7b5d9cb19496f","infoHashBuffer":{"type":"Buffer","data":[204,137,109,104,48,147,172,118,58,67,79,169,86,183,181,217,203,25,73,111]},"announce":[],"urlList":[]}}